<svg height='100px' width='100px'  fill="#1e2640" xmlns="http://www.w3.org/2000/svg" xmlns:xlink="http://www.w3.org/1999/xlink" viewBox="0 0 100 100" version="1.1" x="0px" y="0px"><title>Upload s26.4</title><desc>Created with Sketch.</desc><g stroke="none" stroke-width="1" fill="none" fill-rule="evenodd"><g fill="#1e2640"><path d="M69.9454365,63.9454365 C68.5786015,65.3122715 66.362524,65.3122715 64.995689,63.9454365 C63.628854,62.5786015 63.628854,60.362524 64.995689,58.995689 C73.001437,50.989941 73.001437,38.010059 64.995689,30.004311 C56.989941,21.998563 44.010059,21.998563 36.004311,30.004311 C27.998563,38.010059 27.998563,50.989941 36.004311,58.995689 C37.371146,60.362524 37.371146,62.5786015 36.004311,63.9454365 C34.637476,65.3122715 32.4213985,65.3122715 31.0545635,63.9454365 C20.3151455,53.2060185 20.3151455,35.7939815 31.0545635,25.0545635 C41.7939815,14.3151455 59.2060185,14.3151455 69.9454365,25.0545635 C80.6848545,35.7939815 80.6848545,53.2060185 69.9454365,63.9454365 Z M52.5440897,35.1447036 L62.5700334,45.380574 C65.3900113,48.2086319 61.1600445,52.4517187 58.3390694,49.6236608 L54.9069511,46.1686175 C54.1256059,45.3820532 53.4919266,45.641032 53.4919266,46.7474028 L53.4919266,79.5058006 C53.4919266,81.1562472 52.1525909,82.4999981 50.5004366,82.4999981 C48.8516441,82.4999981 47.5089466,81.1594502 47.5089466,79.5058006 L47.5089466,46.7474028 C47.5089466,45.6401978 46.8752882,45.381901 46.0936309,46.1686175 L42.6608066,49.6236608 C39.8408287,52.4517187 35.6098647,48.2086319 38.4298426,45.380574 L48.3530305,35.1588346 C49.5132064,33.9637533 51.3854039,33.9617568 52.5440897,35.1447036 Z" transform="translate(50.500000, 49.749999) rotate(-270.000000) translate(-50.500000, -49.749999) "></path></g></g></svg>