<svg height='100px' width='100px'  fill="#ffffff" xmlns="http://www.w3.org/2000/svg" viewBox="0 0 64 64" x="0px" y="0px"><title>history, orders, recent, transaction</title><g><path d="M14.9209,16.0264a1.5,1.5,0,0,1,1.5-1.5H41.36a1.5,1.5,0,1,1,0,3H16.4209A1.5,1.5,0,0,1,14.9209,16.0264Zm1.5,10.2959H41.36a1.5,1.5,0,0,0,0-3H16.4209a1.5,1.5,0,0,0,0,3Zm0,8.7949H41.36a1.5,1.5,0,0,0,0-3H16.4209a1.5,1.5,0,0,0,0,3Zm17.9512,5.7949H16.4209a1.5,1.5,0,1,0,0,3H34.3721a1.5,1.5,0,0,0,0-3Zm24.2373,7.61A10.9405,10.9405,0,0,1,38.142,53.9092H13.8906a8.51,8.51,0,0,1-8.5-8.5v-32.38a8.51,8.51,0,0,1,8.5-8.5h30a8.51,8.51,0,0,1,8.5,8.5v25.635A10.9506,10.9506,0,0,1,58.6094,48.5225ZM36.9839,50.9092A10.8834,10.8834,0,0,1,49.3906,37.7253V13.0293a5.5068,5.5068,0,0,0-5.5-5.5h-30a5.5066,5.5066,0,0,0-5.5,5.5v32.38a5.5066,5.5066,0,0,0,5.5,5.5Zm18.6255-2.3867a7.9478,7.9478,0,1,0-7.9473,7.9482A7.9567,7.9567,0,0,0,55.6094,48.5225Zm-4.128-1.5H49.1621v-2.89a1.5,1.5,0,0,0-3,0v4.39a1.5,1.5,0,0,0,1.5,1.5h3.8193a1.5,1.5,0,0,0,0-3Z"></path></g></svg>